<svg width="39" height="43" viewBox="0 0 39 43" fill="none" xmlns="http://www.w3.org/2000/svg">
<path d="M35.1502 7.16589L2.40808 26.0717V28.9305L37.6278 8.61432L35.1502 7.16589Z" fill="url(#paint0_linear_514_2)"/>
<path d="M29.509 3.92603L2.40808 19.5919V22.4507L32.0247 5.37446L29.509 3.92603Z" fill="url(#paint1_linear_514_2)"/>
<path d="M23.9058 0.686096L2.40808 13.1121V15.9709L26.4215 2.13453L23.9058 0.686096Z" fill="url(#paint2_linear_514_2)"/>
<path d="M39 24.3565L15.1009 38.1547L17.5785 39.6031L39 27.2153V24.3565Z" fill="url(#paint3_linear_514_2)"/>
<path d="M39 11.3969L3.89465 31.6749L6.37223 33.1233L39 14.2937V11.3969Z" fill="url(#paint4_linear_514_2)"/>
<path d="M39 17.8766L9.49774 34.9148L11.9753 36.3632L39 20.7354V17.8766Z" fill="url(#paint5_linear_514_2)"/>
<path d="M37.0942 21.8789L10.0695 37.4686L13.1951 39.2601L37.0942 25.4619V21.8789Z" fill="url(#paint6_linear_514_2)"/>
<path d="M18.8745 0L0.502258 10.6345V14.2175L22 1.79148L18.8745 0Z" fill="url(#paint7_linear_514_2)"/>
<path d="M24.4776 3.23993L0.502258 17.0763V20.6973L27.6032 5.03141L24.4776 3.23993Z" fill="url(#paint8_linear_514_2)"/>
<path d="M30.1188 6.4798L0.502258 23.556V27.1771L33.2063 8.27128L30.1188 6.4798Z" fill="url(#paint9_linear_514_2)"/>
<path d="M37.0942 10.5202L35.722 9.71973L0.502258 30.0359V31.9417L1.95069 32.7803L37.0942 12.5022V10.5202Z" fill="url(#paint10_linear_514_2)"/>
<path d="M37.0942 15.3991L4.46637 34.2287L7.59193 36.0202L37.0942 18.9821V15.3991Z" fill="url(#paint11_linear_514_2)"/>
<path d="M37.0942 28.3206L15.6727 40.7085L18.7982 42.5L37.0942 31.9417V28.3206Z" fill="url(#paint12_linear_514_2)"/>
<defs>
<linearGradient id="paint0_linear_514_2" x1="7.31632" y1="24.6606" x2="37.1733" y2="7.42528" gradientUnits="userSpaceOnUse">
<stop offset="0.0543568" stop-color="#0090FF" stop-opacity="0"/>
<stop offset="0.8939" stop-color="#0090FF"/>
</linearGradient>
<linearGradient id="paint1_linear_514_2" x1="4.51261" y1="19.8037" x2="34.3697" y2="2.56846" gradientUnits="userSpaceOnUse">
<stop offset="0.0543568" stop-color="#0090FF" stop-opacity="0"/>
<stop offset="0.8939" stop-color="#0090FF"/>
</linearGradient>
<linearGradient id="paint2_linear_514_2" x1="1.70898" y1="14.9469" x2="31.5661" y2="-2.28837" gradientUnits="userSpaceOnUse">
<stop offset="0.0543568" stop-color="#0090FF" stop-opacity="0"/>
<stop offset="0.8939" stop-color="#0090FF"/>
</linearGradient>
<linearGradient id="paint3_linear_514_2" x1="15.7258" y1="39.2316" x2="45.5828" y2="21.9963" gradientUnits="userSpaceOnUse">
<stop offset="0.0543568" stop-color="#0090FF" stop-opacity="0"/>
<stop offset="0.8939" stop-color="#0090FF"/>
</linearGradient>
<linearGradient id="paint4_linear_514_2" x1="10.12" y1="29.5174" x2="39.977" y2="12.2821" gradientUnits="userSpaceOnUse">
<stop offset="0.0543568" stop-color="#0090FF" stop-opacity="0"/>
<stop offset="0.8939" stop-color="#0090FF"/>
</linearGradient>
<linearGradient id="paint5_linear_514_2" x1="12.9235" y1="34.3741" x2="42.7806" y2="17.1389" gradientUnits="userSpaceOnUse">
<stop offset="0.0543568" stop-color="#0090FF" stop-opacity="0"/>
<stop offset="0.8939" stop-color="#0090FF"/>
</linearGradient>
<linearGradient id="paint6_linear_514_2" x1="33.0367" y1="25.2146" x2="2.83522" y2="45.1782" gradientUnits="userSpaceOnUse">
<stop stop-color="#39C1CB"/>
<stop offset="1" stop-color="#0090FF"/>
</linearGradient>
<linearGradient id="paint7_linear_514_2" x1="17.6677" y1="1.96407" x2="-12.5338" y2="21.9277" gradientUnits="userSpaceOnUse">
<stop stop-color="#39C1CB"/>
<stop offset="1" stop-color="#0090FF"/>
</linearGradient>
<linearGradient id="paint8_linear_514_2" x1="20.7544" y1="6.63375" x2="-9.44701" y2="26.5974" gradientUnits="userSpaceOnUse">
<stop stop-color="#39C1CB"/>
<stop offset="1" stop-color="#0090FF"/>
</linearGradient>
<linearGradient id="paint9_linear_514_2" x1="23.8411" y1="11.3034" x2="-6.36029" y2="31.267" gradientUnits="userSpaceOnUse">
<stop stop-color="#39C1CB"/>
<stop offset="1" stop-color="#0090FF"/>
</linearGradient>
<linearGradient id="paint10_linear_514_2" x1="26.8948" y1="15.923" x2="-3.30666" y2="35.8867" gradientUnits="userSpaceOnUse">
<stop stop-color="#39C1CB"/>
<stop offset="0.383" stop-color="#23AEDF"/>
<stop offset="1" stop-color="#0090FF"/>
</linearGradient>
<linearGradient id="paint11_linear_514_2" x1="29.9499" y1="20.5449" x2="-0.25151" y2="40.5086" gradientUnits="userSpaceOnUse">
<stop stop-color="#39C1CB"/>
<stop offset="1" stop-color="#0090FF"/>
</linearGradient>
<linearGradient id="paint12_linear_514_2" x1="36.1232" y1="29.884" x2="5.9218" y2="49.8477" gradientUnits="userSpaceOnUse">
<stop stop-color="#39C1CB"/>
<stop offset="1" stop-color="#0090FF"/>
</linearGradient>
</defs>
</svg>
