<svg width="101" height="112" viewBox="0 0 101 112" fill="none" xmlns="http://www.w3.org/2000/svg">
<path d="M90.9 18.8L5 68.4V75.9L97.4 22.6L90.9 18.8Z" fill="url(#paint0_linear_0_4)"/>
<path d="M76.1 10.3L5 51.4V58.9L82.7 14.1L76.1 10.3Z" fill="url(#paint1_linear_0_4)"/>
<path d="M61.4 1.79999L5 34.4V41.9L68 5.59999L61.4 1.79999Z" fill="url(#paint2_linear_0_4)"/>
<path d="M101 63.9L38.3 100.1L44.8 103.9L101 71.4V63.9Z" fill="url(#paint3_linear_0_4)"/>
<path d="M101 29.9L8.90002 83.1L15.4 86.9L101 37.5V29.9Z" fill="url(#paint4_linear_0_4)"/>
<path d="M101 46.9L23.6 91.6L30.1 95.4L101 54.4V46.9Z" fill="url(#paint5_linear_0_4)"/>
<path d="M96 57.4L25.1 98.3L33.3 103L96 66.8V57.4Z" fill="url(#paint6_linear_0_4)"/>
<path d="M48.2 0L0 27.9V37.3L56.4 4.7L48.2 0Z" fill="url(#paint7_linear_0_4)"/>
<path d="M62.9 8.5L0 44.8V54.3L71.1 13.2L62.9 8.5Z" fill="url(#paint8_linear_0_4)"/>
<path d="M77.7 17L0 61.8V71.3L85.8 21.7L77.7 17Z" fill="url(#paint9_linear_0_4)"/>
<path d="M96 27.6L92.4 25.5L0 78.8V83.8L3.8 86L96 32.8V27.6Z" fill="url(#paint10_linear_0_4)"/>
<path d="M96 40.4L10.4 89.8L18.6 94.5L96 49.8V40.4Z" fill="url(#paint11_linear_0_4)"/>
<path d="M96 74.3L39.8 106.8L48 111.5L96 83.8V74.3Z" fill="url(#paint12_linear_0_4)"/>
<defs>
<linearGradient id="paint0_linear_0_4" x1="17.8769" y1="64.6978" x2="96.2077" y2="19.4805" gradientUnits="userSpaceOnUse">
<stop offset="0.0543568" stop-color="#0090FF" stop-opacity="0"/>
<stop offset="0.8939" stop-color="#0090FF"/>
</linearGradient>
<linearGradient id="paint1_linear_0_4" x1="10.5213" y1="51.9556" x2="88.8522" y2="6.73838" gradientUnits="userSpaceOnUse">
<stop offset="0.0543568" stop-color="#0090FF" stop-opacity="0"/>
<stop offset="0.8939" stop-color="#0090FF"/>
</linearGradient>
<linearGradient id="paint2_linear_0_4" x1="3.1659" y1="39.2136" x2="81.4968" y2="-6.00362" gradientUnits="userSpaceOnUse">
<stop offset="0.0543568" stop-color="#0090FF" stop-opacity="0"/>
<stop offset="0.8939" stop-color="#0090FF"/>
</linearGradient>
<linearGradient id="paint3_linear_0_4" x1="39.9394" y1="102.925" x2="118.27" y2="57.7079" gradientUnits="userSpaceOnUse">
<stop offset="0.0543568" stop-color="#0090FF" stop-opacity="0"/>
<stop offset="0.8939" stop-color="#0090FF"/>
</linearGradient>
<linearGradient id="paint4_linear_0_4" x1="25.2323" y1="77.4397" x2="103.563" y2="32.2225" gradientUnits="userSpaceOnUse">
<stop offset="0.0543568" stop-color="#0090FF" stop-opacity="0"/>
<stop offset="0.8939" stop-color="#0090FF"/>
</linearGradient>
<linearGradient id="paint5_linear_0_4" x1="32.5877" y1="90.1816" x2="110.918" y2="44.9644" gradientUnits="userSpaceOnUse">
<stop offset="0.0543568" stop-color="#0090FF" stop-opacity="0"/>
<stop offset="0.8939" stop-color="#0090FF"/>
</linearGradient>
<linearGradient id="paint6_linear_0_4" x1="85.355" y1="66.1512" x2="6.12058" y2="118.527" gradientUnits="userSpaceOnUse">
<stop stop-color="#39C1CB"/>
<stop offset="1" stop-color="#0090FF"/>
</linearGradient>
<linearGradient id="paint7_linear_0_4" x1="45.034" y1="5.1528" x2="-34.2004" y2="57.528" gradientUnits="userSpaceOnUse">
<stop stop-color="#39C1CB"/>
<stop offset="1" stop-color="#0090FF"/>
</linearGradient>
<linearGradient id="paint8_linear_0_4" x1="53.1321" y1="17.4038" x2="-26.1022" y2="69.779" gradientUnits="userSpaceOnUse">
<stop stop-color="#39C1CB"/>
<stop offset="1" stop-color="#0090FF"/>
</linearGradient>
<linearGradient id="paint9_linear_0_4" x1="61.2302" y1="29.6548" x2="-18.0041" y2="82.03" gradientUnits="userSpaceOnUse">
<stop stop-color="#39C1CB"/>
<stop offset="1" stop-color="#0090FF"/>
</linearGradient>
<linearGradient id="paint10_linear_0_4" x1="69.2415" y1="41.7744" x2="-9.9928" y2="94.1497" gradientUnits="userSpaceOnUse">
<stop stop-color="#39C1CB"/>
<stop offset="0.383" stop-color="#23AEDF"/>
<stop offset="1" stop-color="#0090FF"/>
</linearGradient>
<linearGradient id="paint11_linear_0_4" x1="77.2569" y1="53.9002" x2="-1.97747" y2="106.276" gradientUnits="userSpaceOnUse">
<stop stop-color="#39C1CB"/>
<stop offset="1" stop-color="#0090FF"/>
</linearGradient>
<linearGradient id="paint12_linear_0_4" x1="93.4526" y1="78.4016" x2="14.2183" y2="130.777" gradientUnits="userSpaceOnUse">
<stop stop-color="#39C1CB"/>
<stop offset="1" stop-color="#0090FF"/>
</linearGradient>
</defs>
</svg>
